{
	"asset":{
		"generator":"Khronos glTF Blender I/O v4.4.55",
		"version":"2.0"
	},
	"extensionsUsed":[
		"KHR_materials_clearcoat"
	],
	"scene":0,
	"scenes":[
		{
			"name":"Scene",
			"nodes":[
				0,
				1,
				2,
				3,
				4
			]
		}
	],
	"nodes":[
		{
			"mesh":0,
			"name":"brush_Lacewing_g0_b0",
			"rotation":[
				0.7071068286895752,
				0,
				0,
				0.7071068286895752
			]
		},
		{
			"mesh":1,
			"name":"brush_Icing_g0_b0",
			"rotation":[
				0.7071068286895752,
				0,
				0,
				0.7071068286895752
			]
		},
		{
			"mesh":2,
			"name":"brush_Charcoal_g0_b0",
			"rotation":[
				0.7071068286895752,
				0,
				0,
				0.7071068286895752
			]
		},
		{
			"mesh":3,
			"name":"brush_Wire (Lit)_g0_b0",
			"rotation":[
				0.7071068286895752,
				0,
				0,
				0.7071068286895752
			]
		},
		{
			"mesh":4,
			"name":"brush_SmoothHull_g0_b0",
			"rotation":[
				0.7071068286895752,
				0,
				0,
				0.7071068286895752
			]
		}
	],
	"materials":[
		{
			"alphaCutoff":0.10000000149011612,
			"alphaMode":"MASK",
			"doubleSided":true,
			"extensions":{
				"KHR_materials_clearcoat":{
					"clearcoatRoughnessFactor":1,
					"clearcoatRoughnessTexture":{
						"index":0
					}
				}
			},
			"name":"1cf94f63f57a4a1aad14295af4f5ab5c_brush_Lacewing",
			"pbrMetallicRoughness":{
				"baseColorTexture":{
					"index":1
				},
				"metallicFactor":0.6772727370262146,
				"roughnessFactor":0.6681817770004272
			}
		},
		{
			"doubleSided":true,
			"name":"2f212815f4d3c1a4681afeeaf9c6dc37_brush_Icing",
			"pbrMetallicRoughness":{
				"metallicFactor":0,
				"roughnessFactor":0.5527864098548889
			}
		},
		{
			"alphaMode":"BLEND",
			"doubleSided":true,
			"name":"fde6e7780f7ae58438d689d44cee59f6_brush_Charcoal",
			"pbrMetallicRoughness":{
				"baseColorTexture":{
					"index":2
				},
				"metallicFactor":0,
				"roughnessFactor":0.5527864098548889
			}
		},
		{
			"doubleSided":true,
			"name":"62fef968e84232244a0e1fdb7cfb745c_brush_Wire (Lit)",
			"pbrMetallicRoughness":{
				"baseColorFactor":[
					0.10905231535434723,
					0.03022228181362152,
					0.002863323548808694,
					1
				],
				"metallicFactor":0,
				"roughnessFactor":0.5527864098548889
			}
		},
		{
			"doubleSided":true,
			"name":"355b3579bf1d4ff5a200704437fe684b_brush_SmoothHull",
			"pbrMetallicRoughness":{
				"baseColorFactor":[
					0,
					0,
					0,
					1
				],
				"metallicFactor":0,
				"roughnessFactor":0.5527864098548889
			}
		}
	],
	"meshes":[
		{
			"name":"brush_Lacewing_g0_b0",
			"primitives":[
				{
					"attributes":{
						"POSITION":0,
						"NORMAL":1,
						"TEXCOORD_0":2,
						"COLOR_0":3
					},
					"indices":4,
					"material":0
				}
			]
		},
		{
			"name":"brush_Icing_g0_b0",
			"primitives":[
				{
					"attributes":{
						"POSITION":5,
						"NORMAL":6,
						"TEXCOORD_0":7,
						"TEXCOORD_1":8,
						"COLOR_0":9,
						"COLOR_1":10
					},
					"indices":11,
					"material":1
				}
			]
		},
		{
			"name":"brush_Charcoal_g0_b0",
			"primitives":[
				{
					"attributes":{
						"POSITION":12,
						"NORMAL":13,
						"TEXCOORD_0":14,
						"COLOR_0":15
					},
					"indices":16,
					"material":2
				}
			]
		},
		{
			"name":"brush_Wire (Lit)_g0_b0",
			"primitives":[
				{
					"attributes":{
						"POSITION":17,
						"NORMAL":18,
						"TEXCOORD_0":19,
						"TEXCOORD_1":20,
						"COLOR_0":21,
						"COLOR_1":22
					},
					"indices":23,
					"material":3
				}
			]
		},
		{
			"name":"brush_SmoothHull_g0_b0",
			"primitives":[
				{
					"attributes":{
						"POSITION":24,
						"NORMAL":25,
						"TEXCOORD_0":26,
						"TEXCOORD_1":27,
						"COLOR_0":28,
						"COLOR_1":29
					},
					"indices":30,
					"material":4
				}
			]
		}
	],
	"textures":[
		{
			"sampler":0,
			"source":0
		},
		{
			"sampler":0,
			"source":1
		},
		{
			"sampler":0,
			"source":2
		}
	],
	"images":[
		{
			"mimeType":"image/png",
			"name":"Brush_Lacewing-1cf94f63-f57a-4a1a-ad14-295af4f5ab5c-v10.0-Bu",
			"uri":"Brush_Lacewing-1cf94f63-f57a-4a1a-ad14-295af4f5ab5c-v10_0-Bu.png"
		},
		{
			"mimeType":"image/png",
			"name":"Lacewing",
			"uri":"Lacewing.png"
		},
		{
			"mimeType":"image/png",
			"name":"Charcoal",
			"uri":"Charcoal.png"
		}
	],
	"accessors":[
		{
			"bufferView":0,
			"componentType":5126,
			"count":9852,
			"max":[
				1.270203709602356,
				1.6210880279541016,
				-0.569675862789154
			],
			"min":[
				-3.163353204727173,
				-0.39709898829460144,
				-3.87300181388855
			],
			"type":"VEC3"
		},
		{
			"bufferView":1,
			"componentType":5126,
			"count":9852,
			"type":"VEC3"
		},
		{
			"bufferView":2,
			"componentType":5126,
			"count":9852,
			"type":"VEC2"
		},
		{
			"bufferView":3,
			"componentType":5126,
			"count":9852,
			"type":"VEC3"
		},
		{
			"bufferView":4,
			"componentType":5123,
			"count":9852,
			"type":"SCALAR"
		},
		{
			"bufferView":5,
			"componentType":5126,
			"count":7383,
			"max":[
				1.1523016691207886,
				0.6118380427360535,
				-0.14897258579730988
			],
			"min":[
				-1.1533033847808838,
				-0.5841624140739441,
				-1.3116458654403687
			],
			"type":"VEC3"
		},
		{
			"bufferView":6,
			"componentType":5126,
			"count":7383,
			"type":"VEC3"
		},
		{
			"bufferView":7,
			"componentType":5126,
			"count":7383,
			"type":"VEC2"
		},
		{
			"bufferView":8,
			"componentType":5126,
			"count":7383,
			"type":"VEC2"
		},
		{
			"bufferView":9,
			"componentType":5121,
			"count":7383,
			"normalized":true,
			"type":"VEC4"
		},
		{
			"bufferView":10,
			"componentType":5123,
			"count":7383,
			"normalized":true,
			"type":"VEC4"
		},
		{
			"bufferView":11,
			"componentType":5123,
			"count":36816,
			"type":"SCALAR"
		},
		{
			"bufferView":12,
			"componentType":5126,
			"count":14196,
			"max":[
				0.803530216217041,
				0.7291938662528992,
				-0.5180798768997192
			],
			"min":[
				-0.6522443890571594,
				-0.5635690689086914,
				-1.3392528295516968
			],
			"type":"VEC3"
		},
		{
			"bufferView":13,
			"componentType":5126,
			"count":14196,
			"type":"VEC3"
		},
		{
			"bufferView":14,
			"componentType":5126,
			"count":14196,
			"type":"VEC2"
		},
		{
			"bufferView":15,
			"componentType":5126,
			"count":14196,
			"type":"VEC3"
		},
		{
			"bufferView":16,
			"componentType":5123,
			"count":14196,
			"type":"SCALAR"
		},
		{
			"bufferView":17,
			"componentType":5126,
			"count":3540,
			"max":[
				1.0670580863952637,
				0.5226677656173706,
				-0.06951605528593063
			],
			"min":[
				-0.7490620613098145,
				-0.32229742407798767,
				-0.23022697865962982
			],
			"type":"VEC3"
		},
		{
			"bufferView":18,
			"componentType":5126,
			"count":3540,
			"type":"VEC3"
		},
		{
			"bufferView":19,
			"componentType":5126,
			"count":3540,
			"type":"VEC2"
		},
		{
			"bufferView":20,
			"componentType":5126,
			"count":3540,
			"type":"VEC2"
		},
		{
			"bufferView":21,
			"componentType":5121,
			"count":3540,
			"normalized":true,
			"type":"VEC4"
		},
		{
			"bufferView":22,
			"componentType":5123,
			"count":3540,
			"normalized":true,
			"type":"VEC4"
		},
		{
			"bufferView":23,
			"componentType":5123,
			"count":17856,
			"type":"SCALAR"
		},
		{
			"bufferView":24,
			"componentType":5126,
			"count":1896,
			"max":[
				1.0568392276763916,
				0.5418738126754761,
				-0.08995213359594345
			],
			"min":[
				-0.7452255487442017,
				-0.3254131078720093,
				-0.2111864537000656
			],
			"type":"VEC3"
		},
		{
			"bufferView":25,
			"componentType":5126,
			"count":1896,
			"type":"VEC3"
		},
		{
			"bufferView":26,
			"componentType":5126,
			"count":1896,
			"type":"VEC2"
		},
		{
			"bufferView":27,
			"componentType":5126,
			"count":1896,
			"type":"VEC2"
		},
		{
			"bufferView":28,
			"componentType":5121,
			"count":1896,
			"normalized":true,
			"type":"VEC4"
		},
		{
			"bufferView":29,
			"componentType":5123,
			"count":1896,
			"normalized":true,
			"type":"VEC4"
		},
		{
			"bufferView":30,
			"componentType":5123,
			"count":11280,
			"type":"SCALAR"
		}
	],
	"bufferViews":[
		{
			"buffer":0,
			"byteLength":118224,
			"byteOffset":0,
			"target":34962
		},
		{
			"buffer":0,
			"byteLength":118224,
			"byteOffset":118224,
			"target":34962
		},
		{
			"buffer":0,
			"byteLength":78816,
			"byteOffset":236448,
			"target":34962
		},
		{
			"buffer":0,
			"byteLength":118224,
			"byteOffset":315264,
			"target":34962
		},
		{
			"buffer":0,
			"byteLength":19704,
			"byteOffset":433488,
			"target":34963
		},
		{
			"buffer":0,
			"byteLength":88596,
			"byteOffset":453192,
			"target":34962
		},
		{
			"buffer":0,
			"byteLength":88596,
			"byteOffset":541788,
			"target":34962
		},
		{
			"buffer":0,
			"byteLength":59064,
			"byteOffset":630384,
			"target":34962
		},
		{
			"buffer":0,
			"byteLength":59064,
			"byteOffset":689448,
			"target":34962
		},
		{
			"buffer":0,
			"byteLength":29532,
			"byteOffset":748512,
			"target":34962
		},
		{
			"buffer":0,
			"byteLength":59064,
			"byteOffset":778044,
			"target":34962
		},
		{
			"buffer":0,
			"byteLength":73632,
			"byteOffset":837108,
			"target":34963
		},
		{
			"buffer":0,
			"byteLength":170352,
			"byteOffset":910740,
			"target":34962
		},
		{
			"buffer":0,
			"byteLength":170352,
			"byteOffset":1081092,
			"target":34962
		},
		{
			"buffer":0,
			"byteLength":113568,
			"byteOffset":1251444,
			"target":34962
		},
		{
			"buffer":0,
			"byteLength":170352,
			"byteOffset":1365012,
			"target":34962
		},
		{
			"buffer":0,
			"byteLength":28392,
			"byteOffset":1535364,
			"target":34963
		},
		{
			"buffer":0,
			"byteLength":42480,
			"byteOffset":1563756,
			"target":34962
		},
		{
			"buffer":0,
			"byteLength":42480,
			"byteOffset":1606236,
			"target":34962
		},
		{
			"buffer":0,
			"byteLength":28320,
			"byteOffset":1648716,
			"target":34962
		},
		{
			"buffer":0,
			"byteLength":28320,
			"byteOffset":1677036,
			"target":34962
		},
		{
			"buffer":0,
			"byteLength":14160,
			"byteOffset":1705356,
			"target":34962
		},
		{
			"buffer":0,
			"byteLength":28320,
			"byteOffset":1719516,
			"target":34962
		},
		{
			"buffer":0,
			"byteLength":35712,
			"byteOffset":1747836,
			"target":34963
		},
		{
			"buffer":0,
			"byteLength":22752,
			"byteOffset":1783548,
			"target":34962
		},
		{
			"buffer":0,
			"byteLength":22752,
			"byteOffset":1806300,
			"target":34962
		},
		{
			"buffer":0,
			"byteLength":15168,
			"byteOffset":1829052,
			"target":34962
		},
		{
			"buffer":0,
			"byteLength":15168,
			"byteOffset":1844220,
			"target":34962
		},
		{
			"buffer":0,
			"byteLength":7584,
			"byteOffset":1859388,
			"target":34962
		},
		{
			"buffer":0,
			"byteLength":15168,
			"byteOffset":1866972,
			"target":34962
		},
		{
			"buffer":0,
			"byteLength":22560,
			"byteOffset":1882140,
			"target":34963
		}
	],
	"samplers":[
		{
			"magFilter":9729,
			"minFilter":9987
		}
	],
	"buffers":[
		{
			"byteLength":1904700,
			"uri":"Bed.bin"
		}
	]
}
