{
	"asset":{
		"generator":"Khronos glTF Blender I/O v4.4.55",
		"version":"2.0"
	},
	"scene":0,
	"scenes":[
		{
			"name":"Scene",
			"nodes":[
				0,
				1,
				2,
				3,
				4,
				5
			]
		}
	],
	"nodes":[
		{
			"mesh":0,
			"name":"brush_Charcoal_g0_b0",
			"rotation":[
				0.7071068286895752,
				0,
				0,
				0.7071068286895752
			]
		},
		{
			"mesh":1,
			"name":"brush_SmoothHull_g0_b0",
			"rotation":[
				0.7071068286895752,
				0,
				0,
				0.7071068286895752
			]
		},
		{
			"mesh":2,
			"name":"brush_Gouache_g0_b0",
			"rotation":[
				0.7071068286895752,
				0,
				0,
				0.7071068286895752
			]
		},
		{
			"mesh":3,
			"name":"brush_MatteHull_g0_b0",
			"rotation":[
				0.7071068286895752,
				0,
				0,
				0.7071068286895752
			]
		},
		{
			"mesh":4,
			"name":"brush_Icing_g0_b0",
			"rotation":[
				0.7071068286895752,
				0,
				0,
				0.7071068286895752
			]
		},
		{
			"mesh":5,
			"name":"brush_TubeToonInverted_g0_b0",
			"rotation":[
				0.7071068286895752,
				0,
				0,
				0.7071068286895752
			]
		}
	],
	"materials":[
		{
			"alphaMode":"BLEND",
			"doubleSided":true,
			"name":"fde6e7780f7ae58438d689d44cee59f6_brush_Charcoal",
			"pbrMetallicRoughness":{
				"baseColorFactor":[
					1,
					1,
					1,
					0.800000011920929
				],
				"metallicFactor":0,
				"roughnessFactor":0.5527864098548889
			}
		},
		{
			"doubleSided":true,
			"name":"355b3579bf1d4ff5a200704437fe684b_brush_SmoothHull",
			"pbrMetallicRoughness":{
				"metallicFactor":0,
				"roughnessFactor":0.5527864098548889
			}
		},
		{
			"alphaMode":"BLEND",
			"doubleSided":true,
			"name":"1b897b7e9b76425ab031a867c48df409_brush_Gouache",
			"pbrMetallicRoughness":{
				"baseColorTexture":{
					"index":0
				},
				"metallicFactor":0,
				"roughnessFactor":0.5527864098548889
			}
		},
		{
			"doubleSided":true,
			"name":"79348357432d47468e290e25c112e3aa_brush_MatteHull",
			"pbrMetallicRoughness":{
				"metallicFactor":0,
				"roughnessFactor":0.5527864098548889
			}
		},
		{
			"doubleSided":true,
			"name":"2f212815f4d3c1a4681afeeaf9c6dc37_brush_Icing",
			"pbrMetallicRoughness":{
				"metallicFactor":0,
				"roughnessFactor":0.5527864098548889
			}
		},
		{
			"doubleSided":true,
			"name":"9871385adf7343969e3331e4e4930b27_brush_TubeToonInverted",
			"pbrMetallicRoughness":{
				"metallicFactor":0,
				"roughnessFactor":0.5527864098548889
			}
		}
	],
	"meshes":[
		{
			"name":"brush_Charcoal_g0_b0",
			"primitives":[
				{
					"attributes":{
						"POSITION":0,
						"NORMAL":1,
						"TEXCOORD_0":2,
						"COLOR_0":3,
						"COLOR_1":4
					},
					"indices":5,
					"material":0
				}
			]
		},
		{
			"name":"brush_SmoothHull_g0_b0",
			"primitives":[
				{
					"attributes":{
						"POSITION":6,
						"NORMAL":7,
						"TEXCOORD_0":8,
						"TEXCOORD_1":9,
						"COLOR_0":10,
						"COLOR_1":11
					},
					"indices":12,
					"material":1
				}
			]
		},
		{
			"name":"brush_Gouache_g0_b0",
			"primitives":[
				{
					"attributes":{
						"POSITION":13,
						"NORMAL":14,
						"TEXCOORD_0":15,
						"COLOR_0":16,
						"COLOR_1":17
					},
					"indices":18,
					"material":2
				}
			]
		},
		{
			"name":"brush_MatteHull_g0_b0",
			"primitives":[
				{
					"attributes":{
						"POSITION":19,
						"NORMAL":20,
						"TEXCOORD_0":21,
						"TEXCOORD_1":22,
						"COLOR_0":23,
						"COLOR_1":24
					},
					"indices":25,
					"material":3
				}
			]
		},
		{
			"name":"brush_Icing_g0_b0",
			"primitives":[
				{
					"attributes":{
						"POSITION":26,
						"NORMAL":27,
						"TEXCOORD_0":28,
						"TEXCOORD_1":29,
						"COLOR_0":30,
						"COLOR_1":31
					},
					"indices":32,
					"material":4
				}
			]
		},
		{
			"name":"brush_TubeToonInverted_g0_b0",
			"primitives":[
				{
					"attributes":{
						"POSITION":33,
						"NORMAL":34,
						"TEXCOORD_0":35,
						"TEXCOORD_1":36,
						"COLOR_0":37,
						"COLOR_1":38
					},
					"indices":39,
					"material":5
				}
			]
		}
	],
	"textures":[
		{
			"sampler":0,
			"source":0
		}
	],
	"images":[
		{
			"mimeType":"image/png",
			"name":"Gouache",
			"uri":"Gouache.png"
		}
	],
	"accessors":[
		{
			"bufferView":0,
			"componentType":5126,
			"count":2280,
			"max":[
				0.8838056921958923,
				-0.7365249991416931,
				-4.389562129974365
			],
			"min":[
				-1.0925441980361938,
				-0.8888769149780273,
				-5.7439351081848145
			],
			"type":"VEC3"
		},
		{
			"bufferView":1,
			"componentType":5126,
			"count":2280,
			"type":"VEC3"
		},
		{
			"bufferView":2,
			"componentType":5126,
			"count":2280,
			"type":"VEC2"
		},
		{
			"bufferView":3,
			"componentType":5121,
			"count":2280,
			"normalized":true,
			"type":"VEC4"
		},
		{
			"bufferView":4,
			"componentType":5123,
			"count":2280,
			"normalized":true,
			"type":"VEC4"
		},
		{
			"bufferView":5,
			"componentType":5123,
			"count":2280,
			"type":"SCALAR"
		},
		{
			"bufferView":6,
			"componentType":5126,
			"count":192,
			"max":[
				0.055016230791807175,
				-0.8129833340644836,
				-4.851603031158447
			],
			"min":[
				-0.31914541125297546,
				-0.8984962701797485,
				-5.09345006942749
			],
			"type":"VEC3"
		},
		{
			"bufferView":7,
			"componentType":5126,
			"count":192,
			"type":"VEC3"
		},
		{
			"bufferView":8,
			"componentType":5126,
			"count":192,
			"type":"VEC2"
		},
		{
			"bufferView":9,
			"componentType":5126,
			"count":192,
			"type":"VEC2"
		},
		{
			"bufferView":10,
			"componentType":5121,
			"count":192,
			"normalized":true,
			"type":"VEC4"
		},
		{
			"bufferView":11,
			"componentType":5123,
			"count":192,
			"normalized":true,
			"type":"VEC4"
		},
		{
			"bufferView":12,
			"componentType":5123,
			"count":1140,
			"type":"SCALAR"
		},
		{
			"bufferView":13,
			"componentType":5126,
			"count":63276,
			"max":[
				1.1418498754501343,
				1.6355844736099243,
				-0.7146785259246826
			],
			"min":[
				-1.2745612859725952,
				-1.7129567861557007,
				-4.290226936340332
			],
			"type":"VEC3"
		},
		{
			"bufferView":14,
			"componentType":5126,
			"count":63276,
			"type":"VEC3"
		},
		{
			"bufferView":15,
			"componentType":5126,
			"count":63276,
			"type":"VEC2"
		},
		{
			"bufferView":16,
			"componentType":5121,
			"count":63276,
			"normalized":true,
			"type":"VEC4"
		},
		{
			"bufferView":17,
			"componentType":5123,
			"count":63276,
			"normalized":true,
			"type":"VEC4"
		},
		{
			"bufferView":18,
			"componentType":5123,
			"count":63276,
			"type":"SCALAR"
		},
		{
			"bufferView":19,
			"componentType":5126,
			"count":768,
			"max":[
				0.4404003322124481,
				1.4065810441970825,
				-3.8369927406311035
			],
			"min":[
				-0.6721217036247253,
				0.8089086413383484,
				-4.123978614807129
			],
			"type":"VEC3"
		},
		{
			"bufferView":20,
			"componentType":5126,
			"count":768,
			"type":"VEC3"
		},
		{
			"bufferView":21,
			"componentType":5126,
			"count":768,
			"type":"VEC2"
		},
		{
			"bufferView":22,
			"componentType":5126,
			"count":768,
			"type":"VEC2"
		},
		{
			"bufferView":23,
			"componentType":5121,
			"count":768,
			"normalized":true,
			"type":"VEC4"
		},
		{
			"bufferView":24,
			"componentType":5123,
			"count":768,
			"normalized":true,
			"type":"VEC4"
		},
		{
			"bufferView":25,
			"componentType":5123,
			"count":768,
			"type":"SCALAR"
		},
		{
			"bufferView":26,
			"componentType":5126,
			"count":3971,
			"max":[
				1.3146618604660034,
				1.9266165494918823,
				0.02923623099923134
			],
			"min":[
				-1.2315919399261475,
				-1.5872807502746582,
				-4.993893146514893
			],
			"type":"VEC3"
		},
		{
			"bufferView":27,
			"componentType":5126,
			"count":3971,
			"type":"VEC3"
		},
		{
			"bufferView":28,
			"componentType":5126,
			"count":3971,
			"type":"VEC2"
		},
		{
			"bufferView":29,
			"componentType":5126,
			"count":3971,
			"type":"VEC2"
		},
		{
			"bufferView":30,
			"componentType":5121,
			"count":3971,
			"normalized":true,
			"type":"VEC4"
		},
		{
			"bufferView":31,
			"componentType":5123,
			"count":3971,
			"normalized":true,
			"type":"VEC4"
		},
		{
			"bufferView":32,
			"componentType":5123,
			"count":19728,
			"type":"SCALAR"
		},
		{
			"bufferView":33,
			"componentType":5126,
			"count":1180,
			"max":[
				0.8574861884117126,
				-0.685243546962738,
				-4.434231281280518
			],
			"min":[
				-1.087767243385315,
				-0.9158644080162048,
				-5.679437160491943
			],
			"type":"VEC3"
		},
		{
			"bufferView":34,
			"componentType":5126,
			"count":1180,
			"type":"VEC3"
		},
		{
			"bufferView":35,
			"componentType":5126,
			"count":1180,
			"type":"VEC2"
		},
		{
			"bufferView":36,
			"componentType":5126,
			"count":1180,
			"type":"VEC2"
		},
		{
			"bufferView":37,
			"componentType":5121,
			"count":1180,
			"normalized":true,
			"type":"VEC4"
		},
		{
			"bufferView":38,
			"componentType":5123,
			"count":1180,
			"normalized":true,
			"type":"VEC4"
		},
		{
			"bufferView":39,
			"componentType":5123,
			"count":5952,
			"type":"SCALAR"
		}
	],
	"bufferViews":[
		{
			"buffer":0,
			"byteLength":27360,
			"byteOffset":0,
			"target":34962
		},
		{
			"buffer":0,
			"byteLength":27360,
			"byteOffset":27360,
			"target":34962
		},
		{
			"buffer":0,
			"byteLength":18240,
			"byteOffset":54720,
			"target":34962
		},
		{
			"buffer":0,
			"byteLength":9120,
			"byteOffset":72960,
			"target":34962
		},
		{
			"buffer":0,
			"byteLength":18240,
			"byteOffset":82080,
			"target":34962
		},
		{
			"buffer":0,
			"byteLength":4560,
			"byteOffset":100320,
			"target":34963
		},
		{
			"buffer":0,
			"byteLength":2304,
			"byteOffset":104880,
			"target":34962
		},
		{
			"buffer":0,
			"byteLength":2304,
			"byteOffset":107184,
			"target":34962
		},
		{
			"buffer":0,
			"byteLength":1536,
			"byteOffset":109488,
			"target":34962
		},
		{
			"buffer":0,
			"byteLength":1536,
			"byteOffset":111024,
			"target":34962
		},
		{
			"buffer":0,
			"byteLength":768,
			"byteOffset":112560,
			"target":34962
		},
		{
			"buffer":0,
			"byteLength":1536,
			"byteOffset":113328,
			"target":34962
		},
		{
			"buffer":0,
			"byteLength":2280,
			"byteOffset":114864,
			"target":34963
		},
		{
			"buffer":0,
			"byteLength":759312,
			"byteOffset":117144,
			"target":34962
		},
		{
			"buffer":0,
			"byteLength":759312,
			"byteOffset":876456,
			"target":34962
		},
		{
			"buffer":0,
			"byteLength":506208,
			"byteOffset":1635768,
			"target":34962
		},
		{
			"buffer":0,
			"byteLength":253104,
			"byteOffset":2141976,
			"target":34962
		},
		{
			"buffer":0,
			"byteLength":506208,
			"byteOffset":2395080,
			"target":34962
		},
		{
			"buffer":0,
			"byteLength":126552,
			"byteOffset":2901288,
			"target":34963
		},
		{
			"buffer":0,
			"byteLength":9216,
			"byteOffset":3027840,
			"target":34962
		},
		{
			"buffer":0,
			"byteLength":9216,
			"byteOffset":3037056,
			"target":34962
		},
		{
			"buffer":0,
			"byteLength":6144,
			"byteOffset":3046272,
			"target":34962
		},
		{
			"buffer":0,
			"byteLength":6144,
			"byteOffset":3052416,
			"target":34962
		},
		{
			"buffer":0,
			"byteLength":3072,
			"byteOffset":3058560,
			"target":34962
		},
		{
			"buffer":0,
			"byteLength":6144,
			"byteOffset":3061632,
			"target":34962
		},
		{
			"buffer":0,
			"byteLength":1536,
			"byteOffset":3067776,
			"target":34963
		},
		{
			"buffer":0,
			"byteLength":47652,
			"byteOffset":3069312,
			"target":34962
		},
		{
			"buffer":0,
			"byteLength":47652,
			"byteOffset":3116964,
			"target":34962
		},
		{
			"buffer":0,
			"byteLength":31768,
			"byteOffset":3164616,
			"target":34962
		},
		{
			"buffer":0,
			"byteLength":31768,
			"byteOffset":3196384,
			"target":34962
		},
		{
			"buffer":0,
			"byteLength":15884,
			"byteOffset":3228152,
			"target":34962
		},
		{
			"buffer":0,
			"byteLength":31768,
			"byteOffset":3244036,
			"target":34962
		},
		{
			"buffer":0,
			"byteLength":39456,
			"byteOffset":3275804,
			"target":34963
		},
		{
			"buffer":0,
			"byteLength":14160,
			"byteOffset":3315260,
			"target":34962
		},
		{
			"buffer":0,
			"byteLength":14160,
			"byteOffset":3329420,
			"target":34962
		},
		{
			"buffer":0,
			"byteLength":9440,
			"byteOffset":3343580,
			"target":34962
		},
		{
			"buffer":0,
			"byteLength":9440,
			"byteOffset":3353020,
			"target":34962
		},
		{
			"buffer":0,
			"byteLength":4720,
			"byteOffset":3362460,
			"target":34962
		},
		{
			"buffer":0,
			"byteLength":9440,
			"byteOffset":3367180,
			"target":34962
		},
		{
			"buffer":0,
			"byteLength":11904,
			"byteOffset":3376620,
			"target":34963
		}
	],
	"samplers":[
		{
			"magFilter":9729,
			"minFilter":9987
		}
	],
	"buffers":[
		{
			"byteLength":3388524,
			"uri":"MedicalCartTest2.bin"
		}
	]
}
