{
	"asset": {
		"generator": "Tilt Brush 23.3.841faedfb compatible (Actually: Open Brush 2.10.0.)",
		"version": "2.0",
		"copyright": "Unknown."
	},
	"buffers": [
		{
			"byteLength": 413632,
			"uri": "sketch.bin"
		}
	],
	"accessors": [
		{
			"bufferView": 2,
			"byteOffset": 0,
			"componentType": 5126,
			"count": 312,
			"max": [ 0.536053896, 0.90382719, 0.818649709 ],
			"min": [ -0.557905674, 0.760412037, 0.712396681 ],
			"type": "VEC3"
		},
		{
			"bufferView": 2,
			"byteOffset": 3744,
			"componentType": 5126,
			"count": 312,
			"type": "VEC3"
		},
		{
			"bufferView": 1,
			"byteOffset": 0,
			"componentType": 5121,
			"normalized": true,
			"count": 312,
			"type": "VEC4"
		},
		{
			"bufferView": 3,
			"byteOffset": 0,
			"componentType": 5126,
			"count": 312,
			"type": "VEC4"
		},
		{
			"bufferView": 2,
			"byteOffset": 7488,
			"componentType": 5126,
			"count": 312,
			"type": "VEC3"
		},
		{
			"bufferView": 2,
			"byteOffset": 11232,
			"componentType": 5126,
			"count": 312,
			"type": "VEC3"
		},
		{
			"bufferView": 2,
			"byteOffset": 7488,
			"componentType": 5126,
			"count": 312,
			"type": "VEC2"
		},
		{
			"bufferView": 0,
			"byteOffset": 0,
			"componentType": 5123,
			"count": 1152,
			"max": [ 0 ],
			"min": [ 0 ],
			"type": "SCALAR"
		},
		{
			"bufferView": 2,
			"byteOffset": 14976,
			"componentType": 5126,
			"count": 3156,
			"max": [ 0.690178037, 1.63742793, 0.489232123 ],
			"min": [ -0.505554855, 0.638030469, -0.521896601 ],
			"type": "VEC3"
		},
		{
			"bufferView": 2,
			"byteOffset": 52848,
			"componentType": 5126,
			"count": 3156,
			"type": "VEC3"
		},
		{
			"bufferView": 1,
			"byteOffset": 1248,
			"componentType": 5121,
			"normalized": true,
			"count": 3156,
			"type": "VEC4"
		},
		{
			"bufferView": 2,
			"byteOffset": 90720,
			"componentType": 5126,
			"count": 3156,
			"type": "VEC3"
		},
		{
			"bufferView": 2,
			"byteOffset": 128592,
			"componentType": 5126,
			"count": 3156,
			"type": "VEC3"
		},
		{
			"bufferView": 2,
			"byteOffset": 90720,
			"componentType": 5126,
			"count": 3156,
			"type": "VEC2"
		},
		{
			"bufferView": 0,
			"byteOffset": 2304,
			"componentType": 5123,
			"count": 3156,
			"max": [ 3155 ],
			"min": [ 0 ],
			"type": "SCALAR"
		},
		{
			"bufferView": 2,
			"byteOffset": 166464,
			"componentType": 5126,
			"count": 2810,
			"max": [ 0.766315997, 1.73073852, 0.631375194 ],
			"min": [ -0.504015863, -0.0373729728, -0.678386748 ],
			"type": "VEC3"
		},
		{
			"bufferView": 2,
			"byteOffset": 200184,
			"componentType": 5126,
			"count": 2810,
			"type": "VEC3"
		},
		{
			"bufferView": 1,
			"byteOffset": 13872,
			"componentType": 5121,
			"normalized": true,
			"count": 2810,
			"type": "VEC4"
		},
		{
			"bufferView": 3,
			"byteOffset": 4992,
			"componentType": 5126,
			"count": 2810,
			"type": "VEC4"
		},
		{
			"bufferView": 2,
			"byteOffset": 233904,
			"componentType": 5126,
			"count": 2810,
			"type": "VEC3"
		},
		{
			"bufferView": 2,
			"byteOffset": 267624,
			"componentType": 5126,
			"count": 2810,
			"type": "VEC3"
		},
		{
			"bufferView": 2,
			"byteOffset": 233904,
			"componentType": 5126,
			"count": 2810,
			"type": "VEC2"
		},
		{
			"bufferView": 0,
			"byteOffset": 8616,
			"componentType": 5123,
			"count": 14304,
			"max": [ 2809 ],
			"min": [ 0 ],
			"type": "SCALAR"
		}
	],
	"bufferViews": [
		{
			"buffer": 0,
			"byteLength": 37224,
			"byteOffset": 0,
			"target": 34963
		},
		{
			"buffer": 0,
			"byteLength": 25112,
			"byteOffset": 37224,
			"byteStride": 4,
			"target": 34962
		},
		{
			"buffer": 0,
			"byteLength": 301344,
			"byteOffset": 62336,
			"byteStride": 12,
			"target": 34962
		},
		{
			"buffer": 0,
			"byteLength": 49952,
			"byteOffset": 363680,
			"byteStride": 16,
			"target": 34962
		}
	],
	"meshes": [
		{
			"name": "brush_Guts_g0_b0",
			"primitives": [
				{
					"attributes": {
						"POSITION": 0,
						"NORMAL": 1,
						"COLOR_0": 2,
						"TANGENT": 3,
						"_TB_TIMESTAMP": 5,
						"_TB_UNITY_TEXCOORD_0": 4,
						"TEXCOORD_0": 6
					},
					"indices": 7,
					"material": 0,
					"mode": 4
				}
			]
		},
		{
			"name": "brush_DiamondHull_g0_b0",
			"primitives": [
				{
					"attributes": {
						"POSITION": 8,
						"NORMAL": 9,
						"COLOR_0": 10,
						"_TB_TIMESTAMP": 12,
						"_TB_UNITY_TEXCOORD_0": 11,
						"TEXCOORD_0": 13
					},
					"indices": 14,
					"material": 1,
					"mode": 4
				}
			]
		},
		{
			"name": "brush_Icing_g0_b0",
			"primitives": [
				{
					"attributes": {
						"POSITION": 15,
						"NORMAL": 16,
						"COLOR_0": 17,
						"TANGENT": 18,
						"_TB_TIMESTAMP": 20,
						"_TB_UNITY_TEXCOORD_0": 19,
						"TEXCOORD_0": 21
					},
					"indices": 22,
					"material": 2,
					"mode": 4
				}
			]
		}
	],
	"samplers": [
		{
			"magFilter": 9729,
			"minFilter": 9987,
			"wrapS": 10497,
			"wrapT": 10497
		}
	],
	"textures": [
		{
			"sampler": 0,
			"source": 0
		},
		{
			"sampler": 0,
			"source": 1
		},
		{
			"sampler": 0,
			"source": 2
		},
		{
			"sampler": 0,
			"source": 3
		}
	],
	"images": [
		{
			"uri": "Brush_Guts-99aafe96-1645-44cd-99bd-979bc6ef37c5-v10.0-MainTex.png"
		},
		{
			"uri": "Brush_Guts-99aafe96-1645-44cd-99bd-979bc6ef37c5-v10.0-BumpMap.png"
		},
		{
			"uri": "Brush_DiamondHull-c8313697-2563-47fc-832e-290f4c04b901-v10.0-MainTex.png"
		},
		{
			"uri": "Brush_Icing-2f212815-f4d3-c1a4-681a-feeaf9c6dc37-v10.0-BumpMap.png"
		}
	],
	"materials": [
		{
			"alphaMode": "MASK",
			"alphaCutoff": 0.300000012,
			"doubleSided": true,
			"pbrMetallicRoughness": {
				"baseColorTexture": {
					"index": 0,
					"texCoord": 0
				},
				"metallicFactor": 0,
				"roughnessFactor": 0.257000029
			},
			"normalTexture": {
				"index": 1,
				"texCoord": 0
			},
			"name": "brush_Guts",
			"extensions": {
				"GOOGLE_tilt_brush_material": {
					"guid": "99aafe96-1645-44cd-99bd-979bc6ef37c5"
				}
			}
		},
		{
			"alphaMode": "BLEND",
			"doubleSided": true,
			"pbrMetallicRoughness": {
				"baseColorTexture": {
					"index": 2,
					"texCoord": 0
				},
				"metallicFactor": 0
			},
			"name": "brush_DiamondHull",
			"extensions": {
				"GOOGLE_tilt_brush_material": {
					"guid": "c8313697-2563-47fc-832e-290f4c04b901"
				}
			}
		},
		{
			"alphaMode": "OPAQUE",
			"alphaCutoff": 0.5,
			"pbrMetallicRoughness": {
				"metallicFactor": 0,
				"roughnessFactor": 0.850000024
			},
			"normalTexture": {
				"index": 3,
				"texCoord": 0
			},
			"name": "brush_Icing",
			"extensions": {
				"GOOGLE_tilt_brush_material": {
					"guid": "2f212815-f4d3-c1a4-681a-feeaf9c6dc37"
				}
			}
		}
	],
	"nodes": [
		{
			"name": "brush_Guts_g0_b0",
			"mesh": 0
		},
		{
			"name": "node_SceneLight_0_i1",
			"matrix": [0.898794, -0.2191856, -0.3796406, 0, 0.4383712, 0.449397, 0.7783785, 0, -1.490116E-08, -0.8660254, 0.4999999, 0, 1.375705, -1.178348, -2.378561, 1]
		},
		{
			"name": "node_SceneLight_1_i2",
			"matrix": [0.7660444, 0.4924039, -0.4131759, 0, 0.6427876, -0.5868242, 0.4924039, 0, 8.940697E-08, -0.6427876, -0.7660446, 0, 1.375705, -1.224126, -2.118941, 1]
		},
		{
			"name": "brush_DiamondHull_g0_b0",
			"mesh": 1
		},
		{
			"name": "brush_Icing_g0_b0",
			"mesh": 2
		}
	],
	"scene": 0,
	"scenes": [
		{
			"nodes": [
				0,
				1,
				2,
				3,
				4
			],
			"extras": {

			}
		}
	],
	"extensionsUsed": [
		"GOOGLE_tilt_brush_material"
	]
}